M48
METRIC,LZ,000.000
;FILE_FORMAT=3:3
;TYPE=PLATED
;Layer: PTH_Through
;EasyEDA v6.5.57, 2026-07-09 02:37:13
;659809b5613a4f22bc297f3f0ed768ca,cfe83540a15445618050aa86bddd94a0,10
;Gerber Generator version 0.2
;Holesize 1 = 0.306 mm
T01C0.306
;Holesize 2 = 0.310 mm
T02C0.310
;Holesize 3 = 0.611 mm
T03C0.611
;Holesize 4 = 0.801 mm
T04C0.801
;Holesize 5 = 0.901 mm
T05C0.901
;Holesize 6 = 0.915 mm
T06C0.915
;Holesize 7 = 1.000 mm
T07C1.000
;Holesize 8 = 1.101 mm
T08C1.101
%
G05
G90
T01
X-019502Y-026788
X-019502Y-029788
X-019502Y-032788
X-019502Y-035788
X-019502Y-038788
X-019502Y-041788
X-019502Y-044788
X-019502Y-047788
X-019502Y-050788
X-019502Y-053788
X-019502Y-056788
X-019502Y-059788
X-019502Y-062788
X-019502Y-065788
X-019502Y-068788
X-019502Y-071788
X-016502Y-023788
X-016502Y-026788
X-016502Y-029788
X-016502Y-032788
X-016502Y-035788
X-016502Y-050788
X-016502Y-059788
X-016502Y-062788
X-016502Y-065788
X-016502Y-068788
X-016502Y-071788
X-016502Y-074788
X-013502Y-020788
X-013502Y-074788
X-010502Y-020788
X-010502Y-074788
X-007502Y-020788
X-007502Y-035788
X-007502Y-062788
X-007502Y-065788
X-007502Y-068788
X-007502Y-071788
X-007502Y-074788
X-004502Y-014788
X-004502Y-020788
X-004502Y-032788
X-004502Y-065788
X-001502Y-017788
X-001502Y-020788
X-001502Y-032788
X-001502Y-056788
X-001502Y-071788
X001498Y-026788
X001498Y-029788
X001498Y-032788
X001498Y-056788
X001498Y-074788
X004498Y-014788
X004498Y-017788
X004498Y-026788
X004498Y-029788
X004498Y-032788
X004498Y-056788
X004498Y-074788
X007498Y-014788
X007498Y-017788
X007498Y-026788
X007498Y-029788
X007498Y-032788
X007498Y-053788
X007498Y-056788
X007498Y-059788
X007498Y-074788
X010498Y-014788
X010498Y-017788
X010498Y-020788
X010498Y-026788
X010498Y-029788
X010498Y-032788
X010498Y-041788
X010498Y-044788
X010498Y-047788
X010498Y-050788
X010498Y-053788
X010498Y-056788
X010498Y-059788
X010498Y-062788
X010498Y-065788
X010498Y-068788
X010498Y-071788
X010498Y-074788
X013498Y-014788
X013498Y-017788
X013498Y-020788
X013498Y-026788
X013498Y-029788
X013498Y-032788
X013498Y-041788
X013498Y-044788
X013498Y-047788
X013498Y-050788
X013498Y-053788
X013498Y-056788
X013498Y-059788
X013498Y-062788
X013498Y-065788
X013498Y-068788
X013498Y-071788
X013498Y-074788
X016498Y-014788
X016498Y-017788
X016498Y-020788
X016498Y-026788
X016498Y-029788
X016498Y-032788
X016498Y-038788
X016498Y-041788
X016498Y-044788
X016498Y-047788
X016498Y-050788
X016498Y-053788
X016498Y-056788
X016498Y-059788
X016498Y-062788
X016498Y-065788
X016498Y-068788
X016498Y-071788
X016498Y-074788
X019498Y-014788
X019498Y-017788
X019498Y-020788
X019498Y-023788
X019498Y-026788
X019498Y-029788
X019498Y-032788
X019498Y-035788
X019498Y-038788
X019498Y-041788
X019498Y-044788
X019498Y-047788
X019498Y-050788
X019498Y-053788
X019498Y-056788
X019498Y-059788
X019498Y-062788
X019498Y-065788
X019498Y-068788
X019498Y-071788
X019498Y-074788
X022498Y-014788
X022498Y-017788
X022498Y-020788
X022498Y-023788
X022498Y-026788
X022498Y-029788
X022498Y-032788
X022498Y-035788
X022498Y-038788
X022498Y-041788
X022498Y-044788
X022498Y-047788
X022498Y-050788
X022498Y-053788
X022498Y-056788
X022498Y-059788
X022498Y-062788
X022498Y-065788
X022498Y-068788
X022498Y-071788
X022498Y-074788
X025498Y-014788
X025498Y-017788
X025498Y-020788
X025498Y-023788
X025498Y-026788
X025498Y-029788
X025498Y-032788
X025498Y-035788
X025498Y-038788
X025498Y-041788
X025498Y-044788
X025498Y-047788
X025498Y-050788
X025498Y-053788
X025498Y-056788
X025498Y-059788
X025498Y-062788
X025498Y-065788
X025498Y-068788
X025498Y-071788
X025498Y-074788
X028498Y-014788
X028498Y-017788
X028498Y-020788
X028498Y-023788
X028498Y-026788
X028498Y-029788
X028498Y-032788
X028498Y-035788
X028498Y-038788
X028498Y-041788
X028498Y-044788
X028498Y-047788
X028498Y-050788
X028498Y-053788
X028498Y-056788
X028498Y-059788
X028498Y-062788
X028498Y-065788
X028498Y-068788
X028498Y-071788
X028498Y-074788
X031498Y-014788
X031498Y-017788
X031498Y-020788
X031498Y-023788
X031498Y-026788
X031498Y-029788
X031498Y-032788
X031498Y-035788
X031498Y-038788
X031498Y-041788
X031498Y-044788
X031498Y-047788
X031498Y-050788
X031498Y-053788
X031498Y-056788
X031498Y-059788
X031498Y-062788
X031498Y-065788
X031498Y-068788
X031498Y-071788
X031498Y-074788
X034498Y-014788
X034498Y-017788
X034498Y-020788
X034498Y-023788
X034498Y-026788
X034498Y-029788
X034498Y-032788
X034498Y-035788
X034498Y-038788
X034498Y-041788
X034498Y-044788
X034498Y-047788
X034498Y-050788
X034498Y-053788
X034498Y-056788
X034498Y-059788
X034498Y-062788
X034498Y-065788
X034498Y-068788
X034498Y-071788
X034498Y-074788
X037498Y-014788
X037498Y-017788
X037498Y-020788
X037498Y-023788
X037498Y-026788
X037498Y-029788
X037498Y-032788
X037498Y-035788
X037498Y-038788
X037498Y-041788
X037498Y-044788
X037498Y-047788
X037498Y-050788
X037498Y-053788
X037498Y-056788
X037498Y-059788
X037498Y-062788
X037498Y-065788
X037498Y-068788
X037498Y-071788
X037498Y-074788
X040498Y-014788
X040498Y-017788
X040498Y-020788
X040498Y-023788
X040498Y-026788
X040498Y-029788
X040498Y-032788
X040498Y-035788
X040498Y-038788
X040498Y-041788
X040498Y-044788
X040498Y-047788
X040498Y-050788
X040498Y-053788
X040498Y-056788
X040498Y-059788
X040498Y-062788
X040498Y-065788
X040498Y-068788
X040498Y-071788
X040498Y-074788
X043498Y-014788
X043498Y-017788
X043498Y-020788
X043498Y-023788
X043498Y-026788
X043498Y-029788
X043498Y-032788
X043498Y-035788
X043498Y-038788
X043498Y-041788
X043498Y-044788
X043498Y-047788
X043498Y-050788
X043498Y-053788
X043498Y-056788
X043498Y-059788
X043498Y-062788
X043498Y-065788
X043498Y-068788
X043498Y-071788
X043498Y-074788
X046498Y-014788
X046498Y-017788
X046498Y-020788
X046498Y-023788
X046498Y-026788
X046498Y-029788
X046498Y-032788
X046498Y-035788
X046498Y-038788
X046498Y-041788
X046498Y-044788
X046498Y-047788
X046498Y-050788
X046498Y-053788
X046498Y-056788
X046498Y-059788
X046498Y-062788
X046498Y-065788
X046498Y-068788
X046498Y-071788
X046498Y-074788
T02
X-003175Y-049022
X010795Y-038862
X-004953Y-053975
X-001016Y-066675
X-015240Y-055753
X000635Y-063373
X005715Y-064643
X-003810Y-045593
X-000381Y-041656
X-006096Y-042418
X-002286Y-041529
X-009779Y-037973
X-006350Y-037465
X-002667Y-035433
X000127Y-037465
X016637Y-037846
X014605Y-021209
X002667Y-034036
X002159Y-049530
X-000381Y-016383
X-012446Y-016002
X-001651Y-016510
X001905Y-011811
X008763Y-016383
X000000Y-031750
X-001905Y-011176
X-005080Y-011303
T03
X-005080Y-043180
T04
X002652Y-035967G85X002652Y-035962
X004652Y-035967G85X004652Y-035962
X006652Y-035967G85X006652Y-035962
X008652Y-035967G85X008652Y-035962
X010652Y-035967G85X010652Y-035962
X012652Y-035967G85X012652Y-035962
X014652Y-035967G85X014652Y-035962
X016652Y-035967G85X016652Y-035962
X002652Y-022966G85X002652Y-022961
X004652Y-022966G85X004652Y-022961
X006652Y-022966G85X006652Y-022961
X008652Y-022966G85X008652Y-022961
X010652Y-022966G85X010652Y-022961
X012652Y-022966G85X012652Y-022961
X014652Y-022966G85X014652Y-022961
X016652Y-022966G85X016652Y-022961
T05
X-004806Y-069977
X-002306Y-069977
T06
X004569Y-043307G85X004575Y-043307
X007109Y-043307G85X007115Y-043307
X004569Y-045847G85X004575Y-045847
X007109Y-045847G85X007115Y-045847
X004569Y-048387G85X004575Y-048387
X007109Y-048387G85X007115Y-048387
X004569Y-050927G85X004575Y-050927
X007109Y-050927G85X007115Y-050927
T07
X-011430Y-072263
X-013970Y-072263
X-011430Y-069723
X-013970Y-069723
X-011430Y-067183
X-013970Y-067183
X-011430Y-064643
X-013970Y-064643
X-011430Y-062103
X-013970Y-062103
X-011430Y-059563
X-013970Y-059563
X-011430Y-057023
X-013970Y-057023
X-011430Y-054483
X-013970Y-054483
X-011430Y-051943
X-013970Y-051943
X-011430Y-049403
X-013970Y-049403
X-011430Y-046863
X-013970Y-046863
X-011430Y-044323
X-013970Y-044323
X-011430Y-041783
X-013970Y-041783
X-011430Y-039243
X-013970Y-039243
X-011430Y-036703
X-013970Y-036703
X-011430Y-034163
X-013970Y-034163
X-011430Y-031623
X-013970Y-031623
X-011430Y-029083
X-013970Y-029083
X-011430Y-026543
X-013970Y-026543
X-011430Y-024003
X-013970Y-024003
T08
X004445Y-062611
X006985Y-062611
X004445Y-065151
X006985Y-065151
X004445Y-067691
X006985Y-067691
X004445Y-070231
X006985Y-070231
M30
