G04 Layer: TopPasteMaskLayer*
G04 EasyEDA v6.5.57, 2026-07-09 02:37:13*
G04 659809b5613a4f22bc297f3f0ed768ca,cfe83540a15445618050aa86bddd94a0,10*
G04 Gerber Generator version 0.2*
G04 Scale: 100 percent, Rotated: No, Reflected: No *
G04 Dimensions in millimeters *
G04 leading zeros omitted , absolute positions ,4 integer and 5 decimal *
%FSLAX45Y45*%
%MOMM*%

%AMMACRO1*21,1,$1,$2,0,0,$3*%
%ADD10R,1.1000X2.5000*%
%ADD11MACRO1,3.6X2.34X0.0000*%
%ADD12C,0.0106*%

%LPD*%
G36*
X-64008Y-2674315D02*
G01*
X-68986Y-2679293D01*
X-68986Y-2794304D01*
X-64008Y-2799283D01*
X-21996Y-2798826D01*
X-21996Y-2754782D01*
X23012Y-2754782D01*
X23012Y-2799791D01*
X64008Y-2799283D01*
X68986Y-2794304D01*
X68986Y-2679293D01*
X64008Y-2674315D01*
G37*
G36*
X-23012Y-2889808D02*
G01*
X-64008Y-2890316D01*
X-68986Y-2895295D01*
X-68986Y-3010306D01*
X-64008Y-3015284D01*
X64008Y-3015284D01*
X68986Y-3010306D01*
X68986Y-2895295D01*
X64008Y-2890316D01*
X21996Y-2890774D01*
X21996Y-2934817D01*
X-23012Y-2934817D01*
G37*
G36*
X-51206Y-1162913D02*
G01*
X-56184Y-1167892D01*
X-56184Y-1295908D01*
X-51206Y-1300886D01*
X63804Y-1300886D01*
X68783Y-1295908D01*
X68326Y-1253896D01*
X24282Y-1253896D01*
X24282Y-1208887D01*
X69291Y-1208887D01*
X68783Y-1167892D01*
X63804Y-1162913D01*
G37*
G36*
X164795Y-1162913D02*
G01*
X159816Y-1167892D01*
X160274Y-1209903D01*
X204317Y-1209903D01*
X204317Y-1254912D01*
X159308Y-1254912D01*
X159816Y-1295908D01*
X164795Y-1300886D01*
X279806Y-1300886D01*
X284784Y-1295908D01*
X284784Y-1167892D01*
X279806Y-1162913D01*
G37*
G36*
X-762304Y-1061313D02*
G01*
X-767283Y-1066292D01*
X-766826Y-1108303D01*
X-722782Y-1108303D01*
X-722782Y-1153312D01*
X-767791Y-1153312D01*
X-767283Y-1194308D01*
X-762304Y-1199286D01*
X-647293Y-1199286D01*
X-642315Y-1194308D01*
X-642315Y-1066292D01*
X-647293Y-1061313D01*
G37*
G36*
X-978306Y-1061313D02*
G01*
X-983284Y-1066292D01*
X-983284Y-1194308D01*
X-978306Y-1199286D01*
X-863295Y-1199286D01*
X-858316Y-1194308D01*
X-858774Y-1152296D01*
X-902817Y-1152296D01*
X-902817Y-1107287D01*
X-857808Y-1107287D01*
X-858316Y-1066292D01*
X-863295Y-1061313D01*
G37*
G36*
X590296Y-1551889D02*
G01*
X580288Y-1561896D01*
X580288Y-1598930D01*
X590296Y-1608937D01*
X620776Y-1608937D01*
X630783Y-1618945D01*
X630783Y-1657654D01*
X620776Y-1667662D01*
X590296Y-1667662D01*
X580288Y-1677670D01*
X580288Y-1714703D01*
X590296Y-1724710D01*
X718820Y-1724710D01*
X728776Y-1714703D01*
X728776Y-1561896D01*
X718820Y-1551889D01*
G37*
G36*
X271780Y-1551889D02*
G01*
X261823Y-1561896D01*
X261823Y-1714703D01*
X271780Y-1724710D01*
X400304Y-1724710D01*
X410311Y-1714703D01*
X410311Y-1677670D01*
X400304Y-1667662D01*
X369824Y-1667662D01*
X359816Y-1657654D01*
X359816Y-1618945D01*
X369824Y-1608937D01*
X400304Y-1608937D01*
X410311Y-1598930D01*
X410311Y-1561896D01*
X400304Y-1551889D01*
G37*
D10*
G01*
X-354203Y-1658797D03*
G01*
X-584200Y-1658797D03*
G01*
X-814196Y-1658797D03*
D11*
G01*
X-584200Y-2252802D03*
M02*
