G04 Layer: BottomSolderMaskLayer*
G04 EasyEDA v6.5.57, 2026-07-09 02:37:13*
G04 659809b5613a4f22bc297f3f0ed768ca,cfe83540a15445618050aa86bddd94a0,10*
G04 Gerber Generator version 0.2*
G04 Scale: 100 percent, Rotated: No, Reflected: No *
G04 Dimensions in millimeters *
G04 leading zeros omitted , absolute positions ,4 integer and 5 decimal *
%FSLAX45Y45*%
%MOMM*%

%AMMACRO1*4,1,8,-0.7831,-0.8128,-0.8128,-0.783,-0.8128,0.7831,-0.7831,0.8128,0.783,0.8128,0.8128,0.7831,0.8128,-0.783,0.783,-0.8128,-0.7831,-0.8128,0*%
%AMMACRO2*4,1,8,-0.8211,-0.8508,-0.8508,-0.821,-0.8508,0.8211,-0.8211,0.8508,0.821,0.8508,0.8508,0.8211,0.8508,-0.821,0.821,-0.8508,-0.8211,-0.8508,0*%
%AMMACRO3*4,1,8,-0.8711,-0.9008,-0.9008,-0.871,-0.9008,0.8711,-0.8711,0.9008,0.871,0.9008,0.9008,0.8711,0.9008,-0.871,0.871,-0.9008,-0.8711,-0.9008,0*%
%ADD10MACRO1*%
%ADD11C,1.6256*%
%ADD12C,1.7016*%
%ADD13MACRO2*%
%ADD14MACRO3*%
%ADD15C,1.8016*%
%ADD16C,0.0106*%
%ADD17C,1.6000*%
%ADD18C,1.4097*%

%LPD*%
D10*
G01*
X457200Y-4330700D03*
D11*
G01*
X711200Y-4330700D03*
G01*
X457200Y-4584700D03*
G01*
X711200Y-4584700D03*
G01*
X457200Y-4838700D03*
G01*
X711200Y-4838700D03*
G01*
X457200Y-5092700D03*
G01*
X711200Y-5092700D03*
D12*
G01*
X-1143000Y-7226300D03*
G01*
X-1397000Y-7226300D03*
G01*
X-1143000Y-6972300D03*
G01*
X-1397000Y-6972300D03*
G01*
X-1143000Y-6718300D03*
G01*
X-1397000Y-6718300D03*
G01*
X-1143000Y-6464300D03*
G01*
X-1397000Y-6464300D03*
G01*
X-1143000Y-6210300D03*
G01*
X-1397000Y-6210300D03*
G01*
X-1143000Y-5956300D03*
G01*
X-1397000Y-5956300D03*
G01*
X-1143000Y-5702300D03*
G01*
X-1397000Y-5702300D03*
G01*
X-1143000Y-5448300D03*
G01*
X-1397000Y-5448300D03*
G01*
X-1143000Y-5194300D03*
G01*
X-1397000Y-5194300D03*
G01*
X-1143000Y-4940300D03*
G01*
X-1397000Y-4940300D03*
G01*
X-1143000Y-4686300D03*
G01*
X-1397000Y-4686300D03*
G01*
X-1143000Y-4432300D03*
G01*
X-1397000Y-4432300D03*
G01*
X-1143000Y-4178300D03*
G01*
X-1397000Y-4178300D03*
G01*
X-1143000Y-3924300D03*
G01*
X-1397000Y-3924300D03*
G01*
X-1143000Y-3670300D03*
G01*
X-1397000Y-3670300D03*
G01*
X-1143000Y-3416300D03*
G01*
X-1397000Y-3416300D03*
G01*
X-1143000Y-3162300D03*
G01*
X-1397000Y-3162300D03*
G01*
X-1143000Y-2908300D03*
G01*
X-1397000Y-2908300D03*
G01*
X-1143000Y-2654300D03*
G01*
X-1397000Y-2654300D03*
G01*
X-1143000Y-2400300D03*
D13*
G01*
X-1397000Y-2400300D03*
D14*
G01*
X444501Y-6261101D03*
D15*
G01*
X698500Y-6261100D03*
G01*
X444500Y-6515100D03*
G01*
X698500Y-6515100D03*
G01*
X444500Y-6769100D03*
G01*
X698500Y-6769100D03*
G01*
X444500Y-7023100D03*
G01*
X698500Y-7023100D03*
D17*
G01*
X-480593Y-6997700D03*
G01*
X-230606Y-6997700D03*
D18*
G01*
X265201Y-3596411D03*
G01*
X465201Y-3596411D03*
G01*
X665200Y-3596411D03*
G01*
X865200Y-3596411D03*
G01*
X1065199Y-3596411D03*
G01*
X1265199Y-3596411D03*
G01*
X1465198Y-3596411D03*
G01*
X1665198Y-3596411D03*
G01*
X265201Y-2296388D03*
G01*
X465201Y-2296388D03*
G01*
X665200Y-2296388D03*
G01*
X865200Y-2296388D03*
G01*
X1065199Y-2296388D03*
G01*
X1265199Y-2296388D03*
G01*
X1465198Y-2296388D03*
G01*
X1665198Y-2296388D03*
M02*
